<?xml version="1.0" standalone="no"?>
<!DOCTYPE svg PUBLIC "-//W3C//DTD SVG 20010904//EN"
 "http://www.w3.org/TR/2001/REC-SVG-20010904/DTD/svg10.dtd">
<svg version="1.0" xmlns="http://www.w3.org/2000/svg"
 width="194.000000pt" height="260.000000pt" viewBox="0 0 194.000000 260.000000"
 preserveAspectRatio="xMidYMid meet">

<g transform="translate(0.000000,260.000000) scale(0.100000,-0.100000)"
fill="#000000" stroke="none">
<path d="M240 2475 c0 -3 144 -195 320 -426 176 -231 320 -421 320 -423 0 -1
-149 -193 -330 -427 l-330 -424 86 -3 c47 -2 91 2 98 7 7 6 136 170 287 365
151 196 277 355 281 356 3 0 131 -164 284 -365 l277 -365 89 0 c48 0 88 2 88
4 0 3 -144 194 -320 425 -176 231 -320 423 -320 426 0 4 148 198 330 431 l330
424 -93 0 -92 0 -283 -365 c-156 -201 -287 -363 -291 -361 -4 3 -131 167 -282
365 l-274 361 -87 0 c-49 0 -88 -2 -88 -5z"/>
<path d="M571 2460 c44 -64 395 -519 401 -520 5 0 333 420 406 522 13 17 -3
18 -404 18 -414 0 -416 0 -403 -20z"/>
<path d="M120 1625 c0 -445 2 -806 4 -804 2 2 138 180 301 394 164 215 301
395 306 401 5 6 -106 160 -296 409 -168 219 -307 401 -310 403 -3 3 -5 -358
-5 -803z"/>
<path d="M1517 2031 c-189 -247 -305 -407 -300 -414 4 -7 142 -189 307 -406
l301 -394 3 401 c1 220 1 584 0 808 l-3 408 -308 -403z"/>
<path d="M766 1048 c-114 -149 -205 -272 -203 -274 2 -2 189 -3 415 -2 l412 3
-188 245 c-103 135 -196 258 -208 272 l-21 27 -207 -271z"/>
<path d="M445 659 c-4 -6 -5 -13 -2 -16 7 -7 27 6 27 18 0 12 -17 12 -25 -2z"/>
<path d="M120 555 c0 -51 3 -65 15 -65 12 0 15 14 15 65 0 51 -3 65 -15 65
-12 0 -15 -14 -15 -65z"/>
<path d="M180 555 c0 -50 3 -65 14 -65 9 0 16 12 18 33 l3 32 20 -32 c31 -53
45 -43 45 32 0 51 -3 65 -15 65 -10 0 -15 -10 -15 -32 l0 -33 -20 33 c-33 54
-50 43 -50 -33z"/>
<path d="M310 555 l0 -65 33 0 c40 0 67 26 67 64 0 48 -16 66 -60 66 l-40 0 0
-65z m68 -4 c-2 -15 -10 -27 -20 -29 -14 -3 -18 4 -18 31 0 18 3 37 7 40 12
13 34 -16 31 -42z"/>
<path d="M430 555 c0 -51 3 -65 15 -65 12 0 15 14 15 65 0 51 -3 65 -15 65
-12 0 -15 -14 -15 -65z"/>
<path d="M502 608 c-7 -7 -12 -30 -12 -53 0 -46 13 -65 47 -65 26 0 58 42 49
65 -7 20 -46 20 -46 0 0 -8 5 -15 11 -15 5 0 7 -4 4 -10 -15 -24 -35 -9 -35
24 0 35 13 55 25 36 3 -5 15 -10 26 -10 17 0 18 3 9 20 -12 23 -59 27 -78 8z"/>
<path d="M610 555 l0 -65 45 0 c33 0 45 4 45 15 0 10 -10 15 -30 15 -16 0 -30
5 -30 10 0 6 11 10 25 10 16 0 25 6 25 15 0 9 -10 15 -26 15 -34 0 -26 24 9
28 44 5 30 22 -18 22 l-45 0 0 -65z"/>
<path d="M720 555 c0 -51 3 -65 15 -65 10 0 15 10 15 33 l1 32 27 -33 c41 -49
52 -42 52 33 0 50 -3 65 -14 65 -9 0 -16 -12 -18 -32 l-4 -33 -19 32 c-11 18
-28 33 -37 33 -15 0 -18 -10 -18 -65z"/>
<path d="M879 593 c-42 -107 -42 -117 1 -91 16 10 24 10 40 0 36 -22 38 -13
17 53 -23 70 -41 82 -58 38z m27 -50 c-10 -10 -19 5 -10 18 6 11 8 11 12 0 2
-7 1 -15 -2 -18z"/>
<path d="M982 608 c-22 -22 -14 -48 18 -59 39 -14 38 -29 -1 -29 -38 0 -34
-24 5 -28 36 -4 58 15 54 47 -2 20 -9 27 -31 29 -33 4 -31 27 1 27 12 0 23 5
24 10 4 15 -55 18 -70 3z"/>
<path d="M1130 555 c0 -63 1 -65 26 -65 47 0 64 17 64 63 0 52 -13 67 -57 67
l-33 0 0 -65z m58 2 c2 -28 -1 -37 -12 -37 -12 0 -16 11 -16 41 0 52 24 48 28
-4z"/>
<path d="M1250 594 c-14 -36 -12 -56 6 -82 17 -24 53 -29 72 -10 7 7 12 30 12
53 0 48 -13 65 -52 65 -21 0 -31 -6 -38 -26z m60 -40 c0 -23 -5 -34 -15 -34
-20 0 -30 46 -15 65 18 21 30 9 30 -31z"/>
<path d="M1401 608 c2 -32 37 -113 49 -113 12 0 47 81 49 113 2 26 -30 11 -35
-18 -4 -16 -10 -30 -14 -30 -5 0 -11 14 -15 30 -6 29 -36 44 -34 18z"/>
<path d="M1545 611 c-16 -26 -43 -121 -34 -121 5 0 18 6 29 12 16 10 24 10 40
0 36 -22 40 -12 17 50 -23 61 -39 79 -52 59z m25 -61 c0 -5 -4 -10 -10 -10 -5
0 -10 5 -10 10 0 6 5 10 10 10 6 0 10 -4 10 -10z"/>
<path d="M1630 555 l0 -65 45 0 c33 0 45 4 45 15 0 10 -10 15 -31 15 -31 0
-31 0 -27 50 2 42 0 50 -14 50 -15 0 -18 -10 -18 -65z"/>
<path d="M1740 555 l0 -65 45 0 c33 0 45 4 45 15 0 10 -10 15 -30 15 -16 0
-30 5 -30 10 0 6 11 10 25 10 16 0 25 6 25 15 0 9 -10 15 -26 15 -16 0 -24 5
-21 13 2 6 16 12 30 12 16 -1 27 5 27 12 0 9 -15 13 -45 13 l-45 0 0 -65z"/>
<path d="M120 394 c-6 -14 -10 -31 -10 -37 0 -22 31 -57 49 -57 21 0 47 27 37
37 -4 4 -11 1 -15 -6 -5 -7 -17 -11 -27 -9 -26 4 -33 75 -9 84 9 4 21 2 28 -5
17 -17 31 -13 17 4 -20 25 -59 19 -70 -11z"/>
<path d="M232 408 c-29 -29 -5 -108 33 -108 24 0 45 30 45 64 0 37 -15 56 -45
56 -12 0 -26 -5 -33 -12z m53 -43 c0 -33 -3 -40 -20 -40 -15 0 -21 8 -23 28
-5 39 5 59 25 55 14 -2 18 -13 18 -43z"/>
<path d="M342 363 l-2 -63 35 0 c19 0 35 5 35 10 0 6 -13 10 -29 10 -29 0 -30
2 -34 53 l-3 52 -2 -62z"/>
<path d="M440 360 l0 -60 35 0 c19 0 35 5 35 10 0 6 -14 10 -31 10 -23 0 -30
4 -27 17 2 9 14 20 28 24 l25 7 -27 1 c-21 1 -28 6 -28 20 0 15 8 21 33 24 31
4 31 4 -5 5 l-38 2 0 -60z"/>
<path d="M543 413 c13 -4 17 -15 17 -59 0 -30 5 -54 10 -54 6 0 10 24 10 54 0
44 4 55 18 59 9 3 -3 5 -28 5 -25 0 -37 -2 -27 -5z"/>
<path d="M638 373 c5 -76 10 -83 11 -15 0 34 -2 62 -7 62 -4 0 -6 -21 -4 -47z"/>
<path d="M692 359 c11 -33 24 -57 28 -52 6 7 40 100 40 110 0 2 -4 3 -8 3 -5
0 -15 -19 -22 -42 l-13 -43 -14 43 c-8 23 -18 42 -23 42 -5 0 1 -27 12 -61z"/>
<path d="M784 406 c-10 -27 1 -89 19 -100 37 -24 68 29 53 90 -5 19 -13 24
-37 24 -16 0 -32 -6 -35 -14z m56 -17 c18 -32 4 -71 -23 -67 -26 4 -36 50 -16
74 16 19 26 18 39 -7z"/>
<path d="M930 360 c0 -33 4 -60 10 -60 6 0 10 11 10 25 0 20 5 25 25 25 29 0
47 27 34 52 -6 12 -21 18 -44 18 l-35 0 0 -60z m67 34 c6 -16 -12 -34 -34 -34
-7 0 -13 11 -13 25 0 18 5 25 20 25 11 0 23 -7 27 -16z"/>
<path d="M1044 406 c-3 -8 -4 -31 -2 -51 6 -73 70 -74 76 -1 2 21 -2 44 -9 52
-15 18 -58 18 -65 0z m56 -16 c16 -30 2 -72 -24 -68 -25 4 -35 50 -15 74 16
19 26 18 39 -6z"/>
<path d="M1153 413 c13 -4 17 -15 17 -59 0 -30 5 -54 10 -54 6 0 10 24 10 54
0 44 4 55 18 59 9 3 -3 5 -28 5 -25 0 -37 -2 -27 -5z"/>
<path d="M1240 360 c0 -33 4 -60 10 -60 6 0 10 27 10 60 0 33 -4 60 -10 60 -6
0 -10 -27 -10 -60z"/>
<path d="M1302 408 c-17 -17 -15 -83 3 -98 31 -26 90 18 69 52 -7 11 -44 10
-44 -2 0 -5 7 -10 16 -10 23 0 11 -24 -14 -28 -20 -3 -22 1 -22 38 0 45 19 61
47 39 14 -12 16 -12 11 1 -6 19 -49 25 -66 8z"/>
<path d="M1400 376 c0 -43 18 -76 41 -76 34 0 49 22 49 70 0 28 -4 50 -10 50
-5 0 -10 -23 -10 -51 0 -47 -2 -50 -22 -47 -20 3 -23 10 -26 51 -4 59 -22 62
-22 3z"/>
<path d="M1543 403 c-3 -10 -12 -33 -19 -52 -18 -42 -17 -61 0 -38 16 21 55
22 62 2 4 -8 10 -15 15 -15 4 0 -2 27 -13 60 -23 62 -34 73 -45 43z m30 -43
c4 -15 0 -20 -15 -20 -14 0 -18 5 -14 16 3 9 6 20 6 25 0 17 17 1 23 -21z"/>
<path d="M1631 358 c1 -35 4 -51 6 -35 5 34 30 35 45 2 6 -14 15 -25 20 -25
11 0 10 7 -2 30 -7 14 -7 25 1 38 19 31 4 52 -36 52 l-35 0 1 -62z m57 29 c3
-12 -3 -17 -22 -17 -25 0 -35 18 -19 34 12 12 38 2 41 -17z"/>
<path d="M1763 403 c-3 -10 -12 -33 -19 -52 -18 -42 -17 -61 0 -38 16 21 55
22 62 2 4 -8 10 -15 14 -15 5 0 -1 27 -13 60 -23 62 -33 72 -44 43z m30 -43
c4 -15 0 -20 -15 -20 -14 0 -18 5 -14 16 3 9 6 20 6 25 0 17 17 1 23 -21z"/>
<path d="M650 269 c0 -5 5 -7 10 -4 6 3 10 8 10 11 0 2 -4 4 -10 4 -5 0 -10
-5 -10 -11z"/>
<path d="M1476 193 c-10 -32 -21 -65 -24 -73 -3 -10 -2 -12 5 -5 14 14 54 135
44 135 -4 0 -15 -26 -25 -57z"/>
<path d="M124 226 c-3 -8 -4 -31 -2 -52 3 -35 6 -39 34 -42 21 -2 33 2 37 12
8 19 3 20 -23 4 -17 -11 -22 -10 -30 2 -23 37 5 99 32 72 17 -17 33 -15 18 3
-16 19 -59 20 -66 1z"/>
<path d="M250 185 l0 -55 38 2 c36 1 36 1 5 5 -43 6 -47 40 -5 46 l27 4 -27 2
c-21 1 -28 6 -28 20 0 15 8 21 33 24 31 4 31 4 -5 5 l-38 2 0 -55z"/>
<path d="M373 185 c-12 -30 -17 -55 -12 -55 4 0 11 5 14 10 9 14 52 12 58 -2
2 -7 7 -11 9 -8 7 7 -33 110 -42 110 -4 0 -16 -25 -27 -55z m43 -22 c-2 -3
-11 -3 -19 -1 -11 2 -12 9 -5 28 l10 25 9 -24 c5 -13 7 -26 5 -28z"/>
<path d="M491 183 c1 -39 3 -50 8 -34 9 34 25 36 39 6 6 -14 16 -25 22 -25 8
0 8 6 0 20 -7 14 -7 25 1 38 19 31 4 52 -36 52 l-35 0 1 -57z m57 24 c3 -12
-3 -17 -22 -17 -25 0 -35 18 -19 34 12 12 38 2 41 -17z"/>
<path d="M627 191 c-20 -57 -21 -69 -5 -53 15 15 58 16 58 2 0 -5 4 -10 9 -10
12 0 -22 103 -35 107 -5 2 -17 -19 -27 -46z m42 -23 c1 -5 -6 -8 -14 -8 -15 0
-21 31 -8 44 7 6 20 -17 22 -36z"/>
<path d="M830 185 c0 -58 20 -79 21 -22 0 30 1 31 11 10 15 -30 26 -29 41 4
l12 27 6 -39 c6 -37 6 -35 8 18 1 66 -10 73 -31 20 l-15 -38 -17 38 c-23 52
-36 46 -36 -18z"/>
<path d="M993 185 c0 -33 2 -45 4 -27 2 18 2 45 0 60 -2 15 -4 0 -4 -33z"/>
<path d="M1050 185 c0 -30 5 -55 10 -55 6 0 10 11 10 25 0 14 5 25 10 25 6 0
16 -11 22 -25 6 -14 15 -25 20 -25 10 0 10 11 -1 29 -6 9 -5 21 1 31 18 29 3
50 -37 50 l-35 0 0 -55z m65 25 c0 -8 -10 -16 -22 -18 -18 -3 -23 2 -23 18 0
16 5 21 23 18 12 -2 22 -10 22 -18z"/>
<path d="M1180 185 c0 -30 5 -55 10 -55 6 0 10 25 10 55 0 30 -4 55 -10 55 -5
0 -10 -25 -10 -55z"/>
<path d="M1250 185 c0 -58 20 -79 21 -22 0 30 1 31 11 10 15 -30 26 -29 41 4
l12 27 6 -39 c6 -37 6 -35 8 18 1 66 -10 73 -31 20 l-15 -38 -17 38 c-23 52
-36 46 -36 -18z"/>
<path d="M1611 183 c1 -39 3 -50 8 -34 9 34 25 36 39 6 6 -14 16 -25 22 -25 7
0 7 6 0 21 -8 15 -8 24 0 34 6 8 9 23 5 35 -5 15 -15 20 -41 20 l-34 0 1 -57z
m57 25 c3 -13 -3 -18 -22 -18 -20 0 -26 5 -26 21 0 15 5 20 22 17 13 -2 24
-11 26 -20z"/>
<path d="M1741 183 c2 -54 2 -55 8 -18 l6 40 25 -37 c14 -21 28 -38 33 -38 4
0 6 26 6 58 -2 53 -2 54 -8 17 l-6 -40 -25 37 c-14 21 -28 38 -32 38 -5 0 -7
-26 -7 -57z"/>
<path d="M740 170 c0 -5 9 -10 20 -10 11 0 20 5 20 10 0 6 -9 10 -20 10 -11 0
-20 -4 -20 -10z"/>
</g>
</svg>
